<?xml version="1.0" encoding="utf-8"?><svg viewBox="0 0 21 21" xmlns="http://www.w3.org/2000/svg" xmlns:xlink="http://www.w3.org/1999/xlink"><style>:root>svg{display:none}:root>svg:target{display:block}</style><svg width="9" height="17" viewBox="0 0 9 17" id="block" xmlns="http://www.w3.org/2000/svg"><defs><clipPath id="aa"><path fill="#fff" d="M2 0h5a2 2 0 012 2v13a2 2 0 01-2 2H2a2 2 0 01-2-2V2a2 2 0 012-2z"/></clipPath><clipPath id="ab"><path fill="#fff" d="M1 .999h7v2H1z"/></clipPath><clipPath id="ac"><path fill="#fff" d="M1 4h7v2H1z"/></clipPath><clipPath id="ad"><path fill="#fff" d="M1 7h7v2H1z"/></clipPath><clipPath id="ae"><path fill="#fff" d="M1 10h7v1H1z"/></clipPath></defs><path fill="none" stroke="#da0b29" stroke-miterlimit="20" stroke-width="2" d="M2 0h5a2 2 0 012 2v13a2 2 0 01-2 2H2a2 2 0 01-2-2V2a2 2 0 012-2z" clip-path="url(#aa)"/><path fill="none" stroke="#da0b29" stroke-miterlimit="20" stroke-width="2" d="M1 .999v0h7v2H1v0z" clip-path="url(#ab)"/><path fill="none" stroke="#da0b29" stroke-miterlimit="20" stroke-width="2" d="M1 4v0h7v2H1v0z" clip-path="url(#ac)"/><path fill="none" stroke="#da0b29" stroke-miterlimit="20" stroke-width="2" d="M1 7v0h7v2H1v0z" clip-path="url(#ad)"/><path fill="none" stroke="#da0b29" stroke-miterlimit="20" stroke-width="2" d="M1 10v0h7v1H1v0z" clip-path="url(#ae)"/><path fill="#da0b29" d="M4.5 12a1.5 1.5 0 110 2.999 1.5 1.5 0 010-3z"/></svg><svg width="12" viewBox="0 0 12 12" height="12" id="collection" xmlns="http://www.w3.org/2000/svg"><defs><clipPath id="ba"><path d="M6.68 6.68H12V12H6.68z" fill="#fff"/></clipPath><clipPath id="bb"><path d="M5.25 2.25h1.5V3h-1.5z" fill="#fff"/></clipPath><clipPath id="bc"><path d="M2.25 5.25H3v1.5h-.75z" fill="#fff"/></clipPath><clipPath id="bd"><path d="M5.25 9h1.5v.75h-1.5z" fill="#fff"/></clipPath></defs><path d="M0 0h5.32v5.32H0z" fill="#1b1a1a"/><path d="M6.68 0H12v5.32H6.68z" fill="#1b1a1a"/><path d="M6.68 6.68v0H12V12H6.68v0z" fill="none" stroke="#1b1a1a" stroke-miterlimit="20" stroke-width="3" clip-path="url(#ba)"/><g><path d="M5.25 2.25v0h1.5V3h-1.5v0z" fill="none" stroke="#f9f9f9" stroke-miterlimit="20" stroke-width="2" clip-path="url(#bb)"/><path d="M2.25 5.25v0H3v1.5h-.75v0z" fill="none" stroke="#f9f9f9" stroke-miterlimit="20" stroke-width="2" clip-path="url(#bc)"/><g><path d="M5.25 9v0h1.5v.75h-1.5v0z" fill="none" stroke="#f9f9f9" stroke-miterlimit="20" stroke-width="2" clip-path="url(#bd)"/></g></g><g><path d="M6.75 8.25H12v2.25H6.75z" fill="#1b1a1a"/><g><path d="M8.25 6.75h2.25V12H8.25z" fill="#1b1a1a"/></g></g><g><path d="M0 6.68h5.32V12H0z" fill="#1b1a1a"/></g></svg><svg width="14" height="15" viewBox="0 0 14 15" id="cooler" xmlns="http://www.w3.org/2000/svg"><path fill="#da0b29" d="M8.5 5a2.5 2.5 0 110 5 2.5 2.5 0 010-5z"/><path fill="#da0b29" d="M13 14.413s-1.01.081-2.19-.565c-2.12-1.16-1.921-4.642-1.622-6.423 1.182 2.277 4.13 1.668 4.45 4.826.12 1.17-.084 1.62-.253 1.929-.129.188-.385.233-.385.233zM.468 7.623s.435-.915 1.584-1.614c2.065-1.255 4.98.658 6.374 1.808-2.564-.116-3.51 2.742-6.405 1.44C.948 8.777.659 8.375.477 8.075c-.098-.206-.009-.45-.009-.45z"/><path fill="#da0b29" d="M10.64.19s.612.899.684 2.321c.128 2.554-3.007 4.118-4.718 4.734 1.348-2.243-.765-4.678 1.81-6.563.954-.698 1.455-.735 1.813-.732.233.025.41.24.41.24z"/></svg><svg width="21" height="21" viewBox="0 0 21 21" id="cpu" xmlns="http://www.w3.org/2000/svg"><defs><style>.dcls-1{fill:#0b000c;fill-rule:evenodd}</style></defs><path id="dПрямоугольник_скругл._углы_791" data-name="Прямоугольник, скругл. углы 791" class="dcls-1" d="M883 832h7a2 2 0 012 2v7a2 2 0 01-2 2h-7a2 2 0 01-2-2v-7a2 2 0 012-2zm2 2h3a2 2 0 012 2v3a2 2 0 01-2 2h-3a2 2 0 01-2-2v-3a2 2 0 012-2zm1 1h1a2 2 0 012 2v1a2 2 0 01-2 2h-1a2 2 0 01-2-2v-1a2 2 0 012-2zm-1.5-6a.5.5 0 01.5.5v1a.5.5 0 01-1 0v-1a.5.5 0 01.5-.5zm2 0a.5.5 0 01.5.5v1a.5.5 0 01-1 0v-1a.5.5 0 01.5-.5zm2 0a.5.5 0 01.5.5v1a.5.5 0 01-1 0v-1a.5.5 0 01.5-.5zm-4 15a.5.5 0 01.5.5v1a.5.5 0 01-1 0v-1a.5.5 0 01.5-.5zm2 0a.5.5 0 01.5.5v1a.5.5 0 01-1 0v-1a.5.5 0 01.5-.5zm2 0a.5.5 0 01.5.5v1a.5.5 0 01-1 0v-1a.5.5 0 01.5-.5zm5-9h1a.5.5 0 010 1h-1a.5.5 0 010-1zm0 2h1a.5.5 0 010 1h-1a.5.5 0 010-1zm0 2h1a.5.5 0 010 1h-1a.5.5 0 010-1zm-15-4h1a.5.5 0 010 1h-1a.5.5 0 010-1zm0 2h1a.5.5 0 010 1h-1a.5.5 0 010-1zm0 2h1a.5.5 0 010 1h-1a.5.5 0 010-1z" transform="translate(-876 -827)"/></svg><svg width="21" height="21" viewBox="0 0 21 21" id="gpu" xmlns="http://www.w3.org/2000/svg"><defs><style>.ecls-1{fill:#0b000c;fill-rule:evenodd}</style></defs><path id="eПрямоугольник_скругл._углы_791" data-name="Прямоугольник, скругл. углы 791" class="ecls-1" d="M883 914h7a2 2 0 012 2v7a2 2 0 01-2 2h-7a2 2 0 01-2-2v-7a2 2 0 012-2zm5.3 6.1v.664a3.815 3.815 0 01-.76.361 2.3 2.3 0 01-.7.105 1.512 1.512 0 01-1.2-.49 2.471 2.471 0 01-.431-1.636 2.4 2.4 0 01.426-1.575 1.425 1.425 0 011.142-.5 1.374 1.374 0 01.791.211 1.135 1.135 0 01.44.611l2.1-.375a2.93 2.93 0 00-.574-1.128 2.264 2.264 0 00-.963-.656 5.387 5.387 0 00-1.748-.212 4.544 4.544 0 00-1.928.341 3.077 3.077 0 00-1.4 1.3 4.048 4.048 0 00-.476 2.007 4.2 4.2 0 00.435 1.944 2.929 2.929 0 001.226 1.274 4.281 4.281 0 002.047.428 5.8 5.8 0 001.763-.238 6.878 6.878 0 001.709-.9v-3.006h-3.359v1.47h1.46zm-3.8-9.1a.5.5 0 01.5.5v1a.5.5 0 01-1 0v-1a.5.5 0 01.5-.5zm2 0a.5.5 0 01.5.5v1a.5.5 0 01-1 0v-1a.5.5 0 01.5-.5zm2 0a.5.5 0 01.5.5v1a.5.5 0 01-1 0v-1a.5.5 0 01.5-.5zm-4 15a.5.5 0 01.5.5v1a.5.5 0 01-1 0v-1a.5.5 0 01.5-.5zm2 0a.5.5 0 01.5.5v1a.5.5 0 01-1 0v-1a.5.5 0 01.5-.5zm2 0a.5.5 0 01.5.5v1a.5.5 0 01-1 0v-1a.5.5 0 01.5-.5zm5-9h1a.5.5 0 010 1h-1a.5.5 0 010-1zm0 2h1a.5.5 0 010 1h-1a.5.5 0 010-1zm0 2h1a.5.5 0 010 1h-1a.5.5 0 010-1zm-15-4h1a.5.5 0 010 1h-1a.5.5 0 010-1zm0 2h1a.5.5 0 010 1h-1a.5.5 0 010-1zm0 2h1a.5.5 0 010 1h-1a.5.5 0 010-1z" transform="translate(-876 -909)"/></svg><svg width="21" height="21" viewBox="0 0 21 21" id="hdd" xmlns="http://www.w3.org/2000/svg"><defs><style>.fcls-1{fill:#0b000c;fill-rule:evenodd}</style></defs><path id="fФигура_847" data-name="Фигура 847" class="fcls-1" d="M819 1431h7a2 2 0 012 2v9a2 2 0 01-2 2h-7a2 2 0 01-2-2v-9a2 2 0 012-2zm3.5 1a4.5 4.5 0 11-4.5 4.5 4.5 4.5 0 014.5-4.5zm0 3a1.5 1.5 0 11-1.5 1.5 1.5 1.5 0 011.5-1.5zm2 7a.5.5 0 11-.5.5.5.5 0 01.5-.5zm-4 0a.5.5 0 11-.5.5.5.5 0 01.5-.5zm-1.263-.29l-.474-1.42 3-1 .474 1.42z" transform="translate(-812 -1427)"/></svg><svg width="17" height="17" viewBox="0 0 17 17" id="mb" xmlns="http://www.w3.org/2000/svg"><defs><clipPath id="ga"><path fill="#fff" d="M2-.001h13a2 2 0 012 2v13a2 2 0 01-2 2H2a2 2 0 01-2-2V2a2 2 0 012-2z"/></clipPath><clipPath id="gb"><path fill="#fff" d="M6-.001h1v2H6z"/></clipPath><clipPath id="gc"><path fill="#fff" d="M8-.001h1v2H8z"/></clipPath><clipPath id="gd"><path fill="#fff" d="M10-.001h1v2h-1z"/></clipPath><clipPath id="ge"><path fill="#fff" d="M15 6h2v1h-2z"/></clipPath><clipPath id="gf"><path fill="#fff" d="M15 8h2v1h-2z"/></clipPath><clipPath id="gg"><path fill="#fff" d="M15 10h2v1h-2z"/></clipPath><clipPath id="gh"><path fill="#fff" d="M10 15h1v2h-1z"/></clipPath><clipPath id="gi"><path fill="#fff" d="M8 15h1v2H8z"/></clipPath><clipPath id="gj"><path fill="#fff" d="M6 15h1v2H6z"/></clipPath><clipPath id="gk"><path fill="#fff" d="M0 10h2v1H0z"/></clipPath><clipPath id="gl"><path fill="#fff" d="M0 8h2v1H0z"/></clipPath><clipPath id="gm"><path fill="#fff" d="M0 6h2v1H0z"/></clipPath><clipPath id="gn"><path fill="#fff" d="M11 3h1a2 2 0 012 2v1a2 2 0 01-2 2h-1a2 2 0 01-2-2V5a2 2 0 012-2z"/></clipPath><clipPath id="go"><path fill="#fff" d="M3 3h4v1H3z"/></clipPath><clipPath id="gp"><path fill="#fff" d="M3 6h4v1H3z"/></clipPath><clipPath id="gq"><path fill="#fff" d="M3 9h4v1H3z"/></clipPath><clipPath id="gr"><path fill="#fff" d="M3 12h11v1H3z"/></clipPath><clipPath id="gs"><path fill="#fff" d="M9 9h5v1H9z"/></clipPath></defs><path fill="none" stroke="#da0b29" stroke-miterlimit="20" stroke-width="2" d="M2-.001h13a2 2 0 012 2v13a2 2 0 01-2 2H2a2 2 0 01-2-2V2a2 2 0 012-2z" clip-path="url(#ga)"/><path fill="none" stroke="#da0b29" stroke-miterlimit="20" stroke-width="2" d="M6-.001v0h1v2H6v0z" clip-path="url(#gb)"/><path fill="none" stroke="#da0b29" stroke-miterlimit="20" stroke-width="2" d="M8-.001v0h1v2H8v0z" clip-path="url(#gc)"/><path fill="none" stroke="#da0b29" stroke-miterlimit="20" stroke-width="2" d="M10-.001v0h1v2h-1v0z" clip-path="url(#gd)"/><path fill="none" stroke="#da0b29" stroke-miterlimit="20" stroke-width="2" d="M15 6v0h2v1h-2v0z" clip-path="url(#ge)"/><path fill="none" stroke="#da0b29" stroke-miterlimit="20" stroke-width="2" d="M15 8v0h2v1h-2v0z" clip-path="url(#gf)"/><path fill="none" stroke="#da0b29" stroke-miterlimit="20" stroke-width="2" d="M15 10v0h2v1h-2v0z" clip-path="url(#gg)"/><path fill="none" stroke="#da0b29" stroke-miterlimit="20" stroke-width="2" d="M10 15v0h1v2h-1v0z" clip-path="url(#gh)"/><path fill="none" stroke="#da0b29" stroke-miterlimit="20" stroke-width="2" d="M8 15v0h1v2H8v0z" clip-path="url(#gi)"/><path fill="none" stroke="#da0b29" stroke-miterlimit="20" stroke-width="2" d="M6 15v0h1v2H6v0z" clip-path="url(#gj)"/><path fill="none" stroke="#da0b29" stroke-miterlimit="20" stroke-width="2" d="M0 10v0h2v1H0v0z" clip-path="url(#gk)"/><path fill="none" stroke="#da0b29" stroke-miterlimit="20" stroke-width="2" d="M0 8v0h2v1H0v0z" clip-path="url(#gl)"/><path fill="none" stroke="#da0b29" stroke-miterlimit="20" stroke-width="2" d="M0 6v0h2v1H0v0z" clip-path="url(#gm)"/><path fill="none" stroke="#da0b29" stroke-miterlimit="20" stroke-width="2" d="M11 3h1a2 2 0 012 2v1a2 2 0 01-2 2h-1a2 2 0 01-2-2V5a2 2 0 012-2z" clip-path="url(#gn)"/><path fill="none" stroke="#da0b29" stroke-miterlimit="20" stroke-width="2" d="M3 3v0h4v1H3v0z" clip-path="url(#go)"/><path fill="none" stroke="#da0b29" stroke-miterlimit="20" stroke-width="2" d="M3 6v0h4v1H3v0z" clip-path="url(#gp)"/><path fill="none" stroke="#da0b29" stroke-miterlimit="20" stroke-width="2" d="M3 9v0h4v1H3v0z" clip-path="url(#gq)"/><path fill="none" stroke="#da0b29" stroke-miterlimit="20" stroke-width="2" d="M3 12v0h11v1H3v0z" clip-path="url(#gr)"/><path fill="none" stroke="#da0b29" stroke-miterlimit="20" stroke-width="2" d="M9 9v0h5v1H9v0z" clip-path="url(#gs)"/></svg><svg width="21" height="21" viewBox="0 0 21 21" id="other" xmlns="http://www.w3.org/2000/svg"><defs><style>.hcls-1{fill-rule:evenodd}</style></defs><path id="hЭллипс_905" data-name="Эллипс 905" class="hcls-1" d="M816 1536a2 2 0 11-2 2 2 2 0 012-2zm5 8a2 2 0 11-2 2 2 2 0 012-2zm5-8a2 2 0 11-2 2 2 2 0 012-2z" transform="translate(-810.5 -1531.5)"/></svg><svg width="13" height="15" viewBox="0 0 13 15" id="periphery" xmlns="http://www.w3.org/2000/svg"><defs><clipPath id="ia"><path fill="#fff" d="M2 7.999h9a2 2 0 012 2v3a2 2 0 01-2 2H2a2 2 0 01-2-2v-3a2 2 0 012-2z"/></clipPath><clipPath id="ib"><path fill="#fff" d="M7 7.999H6v-2h1z"/></clipPath><clipPath id="ic"><path fill="#fff" d="M7 5H6V4h1z"/></clipPath><clipPath id="id"><path fill="#fff" d="M7 3H6V1h1z"/></clipPath><clipPath id="ie"><path fill="#fff" d="M4 1V0h5v1z"/></clipPath></defs><path fill="none" stroke="#da0b29" stroke-miterlimit="20" stroke-width="2" d="M2 7.999h9a2 2 0 012 2v3a2 2 0 01-2 2H2a2 2 0 01-2-2v-3a2 2 0 012-2z" clip-path="url(#ia)"/><path fill="none" stroke="#da0b29" stroke-miterlimit="20" stroke-width="2" d="M7 7.999v0H6v0-2 0h1v0z" clip-path="url(#ib)"/><path fill="none" stroke="#da0b29" stroke-miterlimit="20" stroke-width="2" d="M7 5v0H6v0-1 0h1v0z" clip-path="url(#ic)"/><path fill="none" stroke="#da0b29" stroke-miterlimit="20" stroke-width="2" d="M7 3v0H6v0-2 0h1v0z" clip-path="url(#id)"/><path fill="none" stroke="#da0b29" stroke-miterlimit="20" stroke-width="2" d="M4 1v0-1 0h5v1z" clip-path="url(#ie)"/><path fill="#da0b29" d="M2 10h1v1H2zM2 12h1v1H2zM4 10h1v1H4zM4 12h1v1H4zM6 10h1v1H6zM6 12h1v1H6zM8 10h1v1H8zM8 12h1v1H8zM10 10h1v1h-1zM10 12h1v1h-1z"/></svg><svg viewBox="0 0 21 21" width="21" height="21" id="power" xmlns="http://www.w3.org/2000/svg"><path d="M11.5 6L8 11.3h2.1L9.5 15 13 9.8h-2.1l.6-3.8z"/><path d="M15 4c1.1 0 2 .9 2 2v9c0 1.1-.9 2-2 2H6c-1.1 0-2-.9-2-2V6c0-1.1.9-2 2-2h9m0-1H6C4.3 3 3 4.3 3 6v9c0 1.7 1.3 3 3 3h9c1.7 0 3-1.3 3-3V6c0-1.7-1.3-3-3-3z"/></svg><svg version="1.1" id="ram" x="0" y="0" width="21" height="21" xml:space="preserve" viewBox="0 0 21 21" xmlns="http://www.w3.org/2000/svg"><style>.kst0{fill-rule:evenodd;clip-rule:evenodd;fill:#0b000c}</style><path class="kst0" d="M18.2 7.1H3c-1.1 0-2 .9-2 2v3c0 1.1.9 2 2 2h1v.5c0 .3.2.5.5.5s.5-.2.5-.5v-.5h1v.5c0 .3.2.5.5.5s.5-.2.5-.5v-.5h1v.5c0 .3.2.5.5.5s.5-.2.5-.5v-.5h1v.5c0 .3.2.5.5.5s.5-.2.5-.5v-.5h1v.5c0 .3.2.5.5.5s.5-.2.5-.5v-.5h1v.5c0 .3.2.5.5.5s.5-.2.5-.5v-.5h1v.5c0 .3.2.5.5.5s.5-.2.5-.5v-.5h1c1.1 0 2-.9 2-2v-3c.2-1.1-.7-2-1.8-2zm-11.1 5c0 .6-.5 1-1 1h-1c-.6 0-1-.5-1-1v-3c0-.6.5-1 1-1h1c.6 0 1 .5 1 1v3zm5 0c0 .6-.5 1-1 1h-1c-.6 0-1-.5-1-1v-3c0-.6.5-1 1-1h1c.6 0 1 .5 1 1v3zm5.1 0c0 .6-.5 1-1 1h-1c-.6 0-1-.5-1-1v-3c0-.6.5-1 1-1h1c.6 0 1 .5 1 1v3z" id="k_x31_"/></svg><svg version="1.1" id="search" x="0" y="0" width="21" height="21" xml:space="preserve" viewBox="0 0 21 21" xmlns="http://www.w3.org/2000/svg"><style>.lst0{fill-rule:evenodd;clip-rule:evenodd;fill:#bb280f}</style><path class="lst0" d="M17.6 15.8c-.4.6-1.1.7-1.6.3l-4.9-3.5c-.3-.2-.5-.6-.5-1-.6.7-1.5 1.2-2.4 1.3-1.1.2-2.3 0-3.2-.7-1-.7-1.6-1.7-1.8-2.9C3 8.2 3.2 7 3.9 6c1.4-2 4-2.5 6-1.1 1.8 1.3 2.3 3.7 1.4 5.6.4-.2.8-.1 1.1.1l4.9 3.5c.6.4.7 1.2.3 1.7zM10.4 8c-.1-.8-.6-1.5-1.2-2-1.4-1-3.3-.6-4.2.8-1 1.4-.6 3.3.7 4.3 1.4 1 3.2.6 4.2-.8.5-.7.6-1.5.5-2.3z"/></svg></svg>