<svg xmlns="http://www.w3.org/2000/svg" width="9" height="17" viewBox="0 0 9 17"><defs><clipPath id="5mjca"><path fill="#fff" d="M2 0h5a2 2 0 0 1 2 2v13a2 2 0 0 1-2 2H2a2 2 0 0 1-2-2V2a2 2 0 0 1 2-2z"/></clipPath><clipPath id="5mjcb"><path fill="#fff" d="M1 .999h7v2H1z"/></clipPath><clipPath id="5mjcc"><path fill="#fff" d="M1 4h7v2H1z"/></clipPath><clipPath id="5mjcd"><path fill="#fff" d="M1 7h7v2H1z"/></clipPath><clipPath id="5mjce"><path fill="#fff" d="M1 10h7v1H1z"/></clipPath></defs><g><g><g><path fill="none" stroke="#da0b29" stroke-miterlimit="20" stroke-width="2" d="M2 0h5a2 2 0 0 1 2 2v13a2 2 0 0 1-2 2H2a2 2 0 0 1-2-2V2a2 2 0 0 1 2-2z" clip-path="url(&quot;#5mjca&quot;)"/></g><g><path fill="none" stroke="#da0b29" stroke-miterlimit="20" stroke-width="2" d="M1 .999v0h7v2H1v0z" clip-path="url(&quot;#5mjcb&quot;)"/></g><g><path fill="none" stroke="#da0b29" stroke-miterlimit="20" stroke-width="2" d="M1 4v0h7v2H1v0z" clip-path="url(&quot;#5mjcc&quot;)"/></g><g><path fill="none" stroke="#da0b29" stroke-miterlimit="20" stroke-width="2" d="M1 7v0h7v2H1v0z" clip-path="url(&quot;#5mjcd&quot;)"/></g><g><path fill="none" stroke="#da0b29" stroke-miterlimit="20" stroke-width="2" d="M1 10v0h7v1H1v0z" clip-path="url(&quot;#5mjce&quot;)"/></g><g><path fill="#da0b29" d="M4.5 12a1.5 1.5 0 1 1 0 2.999 1.5 1.5 0 0 1 0-3z"/></g></g></g></svg>