<svg id="cancel-filter" width="21" height="21" viewBox="0 0 21 21">
  <defs>
    <style>
      .cls-1 {
        fill: #f9f9f9;
        fill-rule: evenodd;
        filter: url(#filter);
      }
    </style>
    <filter id="filter" x="1834" y="278" width="10" height="10" filterUnits="userSpaceOnUse">
      <feFlood result="flood" flood-color="#bfbfbf"/>
      <feComposite result="composite" operator="in" in2="SourceGraphic"/>
      <feBlend result="blend" in2="SourceGraphic"/>
    </filter>
  </defs>
  <path id="Фигура_3_копия" data-name="Фигура 3 копия" class="cls-1" d="M1835.13,278.573a0.565,0.565,0,1,1-1.13,0A0.565,0.565,0,1,1,1835.13,278.573ZM1834.57,288a0.566,0.566,0,1,1,.57-0.566A0.743,0.743,0,0,1,1834.57,288Zm1.64-8.359a0.565,0.565,0,1,1-1.13,0A0.565,0.565,0,1,1,1836.21,279.642Zm-0.56,7.279a0.565,0.565,0,1,1,.57-0.565A0.742,0.742,0,0,1,1835.65,286.921Zm1.08-1.09a0.565,0.565,0,1,1,.57-0.565A0.742,0.742,0,0,1,1836.73,285.831Zm0.56-5.1a0.555,0.555,0,1,1-.56-0.565A0.742,0.742,0,0,1,1837.29,280.732Zm1.09,1.07a0.565,0.565,0,1,1-.57-0.566A0.752,0.752,0,0,1,1838.38,281.8Zm-0.57,2.95a0.566,0.566,0,1,1,.57-0.566A0.743,0.743,0,0,1,1837.81,284.752Zm1.19-1.028a0.73,0.73,0,1,1,0-1.46A0.73,0.73,0,1,1,1839,283.724Zm1.2-1.347a0.566,0.566,0,1,1,.56-0.565A0.752,0.752,0,0,1,1840.2,282.377Zm0.55,1.809a0.565,0.565,0,1,1-.56-0.565A0.742,0.742,0,0,1,1840.75,284.186Zm0.52-2.909a0.555,0.555,0,1,1,.56-0.555A0.728,0.728,0,0,1,1841.27,281.277Zm0.56,3.989a0.555,0.555,0,1,1-.55-0.565A0.73,0.73,0,0,1,1841.83,285.266Zm0.53-5.058a0.566,0.566,0,1,1,0-1.131A0.566,0.566,0,0,1,1842.36,280.208Zm0.56,6.138a0.565,0.565,0,1,1-1.13,0A0.565,0.565,0,1,1,1842.92,286.346Zm0.51-7.218a0.565,0.565,0,1,1,0-1.13A0.565,0.565,0,0,1,1843.43,279.128Zm0.57,8.3a0.565,0.565,0,1,1-.56-0.566A0.742,0.742,0,0,1,1844,287.425Z" transform="translate(-1828.5 -272.5)"/>
</svg>
