<svg xmlns="http://www.w3.org/2000/svg" width="14" height="15" viewBox="0 0 14 15"><g><g><path fill="#da0b29" d="M8.5 5a2.5 2.5 0 1 1 0 5 2.5 2.5 0 0 1 0-5z"/></g><g><g><path fill="#da0b29" d="M13 14.413s-1.01.081-2.19-.565c-2.12-1.16-1.921-4.642-1.622-6.423 1.182 2.277 4.13 1.668 4.45 4.826.12 1.17-.084 1.62-.253 1.929-.129.188-.385.233-.385.233z"/></g><g><path fill="#da0b29" d="M.468 7.623s.435-.915 1.584-1.614c2.065-1.255 4.98.658 6.374 1.808-2.564-.116-3.51 2.742-6.405 1.44C.948 8.777.659 8.375.477 8.075c-.098-.206-.009-.45-.009-.45z"/></g><g><path fill="#da0b29" d="M10.64.19s.612.899.684 2.321c.128 2.554-3.007 4.118-4.718 4.734 1.348-2.243-.765-4.678 1.81-6.563.954-.698 1.455-.735 1.813-.732.233.025.41.24.41.24z"/></g></g></g></svg>