<svg xmlns="http://www.w3.org/2000/svg" width="21" height="21" viewBox="0 0 21 21">
  <metadata><?xpacket begin="﻿" id="W5M0MpCehiHzreSzNTczkc9d"?>
<x:xmpmeta xmlns:x="adobe:ns:meta/" x:xmptk="Adobe XMP Core 5.6-c138 79.159824, 2016/09/14-01:09:01        ">
   <rdf:RDF xmlns:rdf="http://www.w3.org/1999/02/22-rdf-syntax-ns#">
      <rdf:Description rdf:about=""/>
   </rdf:RDF>
</x:xmpmeta>
                                                                                                    
                                                                                                    
                                                                                                    
                                                                                                    
                                                                                                    
                                                                                                    
                                                                                                    
                                                                                                    
                                                                                                    
                                                                                                    
                                                                                                    
                                                                                                    
                                                                                                    
                                                                                                    
                                                                                                    
                                                                                                    
                                                                                                    
                                                                                                    
                                                                                                    
                                                                                                    
                           
<?xpacket end="w"?></metadata>
<defs>
    <style>
      .cls-1 {
        fill: #0b000c;
        fill-rule: evenodd;
      }
    </style>
  </defs>
  <path id="Прямоугольник_скругл._углы_791" data-name="Прямоугольник, скругл. углы 791" class="cls-1" d="M883,832h7a2,2,0,0,1,2,2v7a2,2,0,0,1-2,2h-7a2,2,0,0,1-2-2v-7A2,2,0,0,1,883,832Zm2,2h3a2,2,0,0,1,2,2v3a2,2,0,0,1-2,2h-3a2,2,0,0,1-2-2v-3A2,2,0,0,1,885,834Zm1,1h1a2,2,0,0,1,2,2v1a2,2,0,0,1-2,2h-1a2,2,0,0,1-2-2v-1A2,2,0,0,1,886,835Zm-1.5-6a0.5,0.5,0,0,1,.5.5v1a0.5,0.5,0,0,1-1,0v-1A0.5,0.5,0,0,1,884.5,829Zm2,0a0.5,0.5,0,0,1,.5.5v1a0.5,0.5,0,0,1-1,0v-1A0.5,0.5,0,0,1,886.5,829Zm2,0a0.5,0.5,0,0,1,.5.5v1a0.5,0.5,0,0,1-1,0v-1A0.5,0.5,0,0,1,888.5,829Zm-4,15a0.5,0.5,0,0,1,.5.5v1a0.5,0.5,0,0,1-1,0v-1A0.5,0.5,0,0,1,884.5,844Zm2,0a0.5,0.5,0,0,1,.5.5v1a0.5,0.5,0,0,1-1,0v-1A0.5,0.5,0,0,1,886.5,844Zm2,0a0.5,0.5,0,0,1,.5.5v1a0.5,0.5,0,0,1-1,0v-1A0.5,0.5,0,0,1,888.5,844Zm5-9h1a0.5,0.5,0,0,1,0,1h-1A0.5,0.5,0,0,1,893.5,835Zm0,2h1a0.5,0.5,0,0,1,0,1h-1A0.5,0.5,0,0,1,893.5,837Zm0,2h1a0.5,0.5,0,0,1,0,1h-1A0.5,0.5,0,0,1,893.5,839Zm-15-4h1a0.5,0.5,0,0,1,0,1h-1A0.5,0.5,0,0,1,878.5,835Zm0,2h1a0.5,0.5,0,0,1,0,1h-1A0.5,0.5,0,0,1,878.5,837Zm0,2h1a0.5,0.5,0,0,1,0,1h-1A0.5,0.5,0,0,1,878.5,839Z" transform="translate(-876 -827)"/>
</svg>
