<svg xmlns="http://www.w3.org/2000/svg" width="21" height="21" viewBox="0 0 21 21">
  <metadata><?xpacket begin="﻿" id="W5M0MpCehiHzreSzNTczkc9d"?>
<x:xmpmeta xmlns:x="adobe:ns:meta/" x:xmptk="Adobe XMP Core 5.6-c138 79.159824, 2016/09/14-01:09:01        ">
   <rdf:RDF xmlns:rdf="http://www.w3.org/1999/02/22-rdf-syntax-ns#">
      <rdf:Description rdf:about=""/>
   </rdf:RDF>
</x:xmpmeta>
                                                                                                    
                                                                                                    
                                                                                                    
                                                                                                    
                                                                                                    
                                                                                                    
                                                                                                    
                                                                                                    
                                                                                                    
                                                                                                    
                                                                                                    
                                                                                                    
                                                                                                    
                                                                                                    
                                                                                                    
                                                                                                    
                                                                                                    
                                                                                                    
                                                                                                    
                                                                                                    
                           
<?xpacket end="w"?></metadata>
<defs>
    <style>
      .cls-1 {
        fill: #0b000c;
        fill-rule: evenodd;
      }
    </style>
  </defs>
  <path id="Прямоугольник_скругл._углы_791" data-name="Прямоугольник, скругл. углы 791" class="cls-1" d="M883,914h7a2,2,0,0,1,2,2v7a2,2,0,0,1-2,2h-7a2,2,0,0,1-2-2v-7A2,2,0,0,1,883,914Zm5.3,6.1v0.664a3.815,3.815,0,0,1-.76.361,2.3,2.3,0,0,1-.7.105,1.512,1.512,0,0,1-1.2-.49,2.471,2.471,0,0,1-.431-1.636,2.4,2.4,0,0,1,.426-1.575,1.425,1.425,0,0,1,1.142-.5,1.374,1.374,0,0,1,.791.211,1.135,1.135,0,0,1,.44.611l2.1-.375a2.93,2.93,0,0,0-.574-1.128,2.264,2.264,0,0,0-.963-0.656,5.387,5.387,0,0,0-1.748-.212,4.544,4.544,0,0,0-1.928.341,3.077,3.077,0,0,0-1.4,1.3,4.048,4.048,0,0,0-.476,2.007,4.2,4.2,0,0,0,.435,1.944,2.929,2.929,0,0,0,1.226,1.274,4.281,4.281,0,0,0,2.047.428,5.8,5.8,0,0,0,1.763-.238,6.878,6.878,0,0,0,1.709-.9v-3.006H886.84V920.1H888.3Zm-3.8-9.1a0.5,0.5,0,0,1,.5.5v1a0.5,0.5,0,0,1-1,0v-1A0.5,0.5,0,0,1,884.5,911Zm2,0a0.5,0.5,0,0,1,.5.5v1a0.5,0.5,0,0,1-1,0v-1A0.5,0.5,0,0,1,886.5,911Zm2,0a0.5,0.5,0,0,1,.5.5v1a0.5,0.5,0,0,1-1,0v-1A0.5,0.5,0,0,1,888.5,911Zm-4,15a0.5,0.5,0,0,1,.5.5v1a0.5,0.5,0,0,1-1,0v-1A0.5,0.5,0,0,1,884.5,926Zm2,0a0.5,0.5,0,0,1,.5.5v1a0.5,0.5,0,0,1-1,0v-1A0.5,0.5,0,0,1,886.5,926Zm2,0a0.5,0.5,0,0,1,.5.5v1a0.5,0.5,0,0,1-1,0v-1A0.5,0.5,0,0,1,888.5,926Zm5-9h1a0.5,0.5,0,0,1,0,1h-1A0.5,0.5,0,0,1,893.5,917Zm0,2h1a0.5,0.5,0,0,1,0,1h-1A0.5,0.5,0,0,1,893.5,919Zm0,2h1a0.5,0.5,0,0,1,0,1h-1A0.5,0.5,0,0,1,893.5,921Zm-15-4h1a0.5,0.5,0,0,1,0,1h-1A0.5,0.5,0,0,1,878.5,917Zm0,2h1a0.5,0.5,0,0,1,0,1h-1A0.5,0.5,0,0,1,878.5,919Zm0,2h1a0.5,0.5,0,0,1,0,1h-1A0.5,0.5,0,0,1,878.5,921Z" transform="translate(-876 -909)"/>
</svg>
