<svg xmlns="http://www.w3.org/2000/svg" width="21" height="21" viewBox="0 0 21 21">
  <metadata><?xpacket begin="﻿" id="W5M0MpCehiHzreSzNTczkc9d"?>
<x:xmpmeta xmlns:x="adobe:ns:meta/" x:xmptk="Adobe XMP Core 5.6-c138 79.159824, 2016/09/14-01:09:01        ">
   <rdf:RDF xmlns:rdf="http://www.w3.org/1999/02/22-rdf-syntax-ns#">
      <rdf:Description rdf:about=""/>
   </rdf:RDF>
</x:xmpmeta>
                                                                                                    
                                                                                                    
                                                                                                    
                                                                                                    
                                                                                                    
                                                                                                    
                                                                                                    
                                                                                                    
                                                                                                    
                                                                                                    
                                                                                                    
                                                                                                    
                                                                                                    
                                                                                                    
                                                                                                    
                                                                                                    
                                                                                                    
                                                                                                    
                                                                                                    
                                                                                                    
                           
<?xpacket end="w"?></metadata>
<defs>
    <style>
      .cls-1 {
        fill: #0b000c;
        fill-rule: evenodd;
      }
    </style>
  </defs>
  <path id="Фигура_847" data-name="Фигура 847" class="cls-1" d="M819,1431h7a2,2,0,0,1,2,2v9a2,2,0,0,1-2,2h-7a2,2,0,0,1-2-2v-9A2,2,0,0,1,819,1431Zm3.5,1a4.5,4.5,0,1,1-4.5,4.5A4.5,4.5,0,0,1,822.5,1432Zm0,3a1.5,1.5,0,1,1-1.5,1.5A1.5,1.5,0,0,1,822.5,1435Zm2,7a0.5,0.5,0,1,1-.5.5A0.5,0.5,0,0,1,824.5,1442Zm-4,0a0.5,0.5,0,1,1-.5.5A0.5,0.5,0,0,1,820.5,1442Zm-1.263-.29-0.474-1.42,3-1,0.474,1.42Z" transform="translate(-812 -1427)"/>
</svg>
