<svg id="help" version="1.1" xmlns="http://www.w3.org/2000/svg" xmlns:xlink="http://www.w3.org/1999/xlink" x="0px"
	y="0px" viewBox="0 0 21 21" style="enable-background:new 0 0 21 21;" xml:space="preserve">
	<g>
		<g>
			<path d="M10.3,13.6l-0.6-0.1c0.1-0.7,0.2-1.3,0.5-1.8s0.7-1.1,1.4-1.7l0,0c0.7-0.6,1-1.2,1-1.9c0-0.4-0.1-0.8-0.4-1
           c-0.3-0.3-0.6-0.4-1.1-0.4c-0.3,0-0.6,0.1-0.8,0.2C10,6.9,9.9,7.1,9.9,7.2c0,0,0.1,0.1,0.3,0.3c0.2,0.2,0.3,0.4,0.3,0.7
           c0,0.2-0.1,0.4-0.2,0.6S9.8,9,9.6,9C9.3,9,9,8.9,8.9,8.7S8.6,8.3,8.6,7.9c0-0.6,0.2-1.1,0.7-1.5c0.5-0.4,1.1-0.6,1.8-0.6
           c0.8,0,1.5,0.2,2,0.7c0.5,0.5,0.8,1,0.8,1.8c0,0.5-0.1,0.9-0.3,1.3c-0.2,0.4-0.6,0.7-1.2,1.1c-0.1,0-0.1,0.1-0.3,0.2
           c-0.5,0.3-0.8,0.6-1,0.8c-0.2,0.2-0.3,0.5-0.5,0.8C10.5,12.8,10.4,13.2,10.3,13.6z M8.7,15.3c0-0.3,0.1-0.5,0.3-0.7
           s0.4-0.3,0.7-0.3c0.3,0,0.5,0.1,0.7,0.3s0.3,0.4,0.3,0.7c0,0.3-0.1,0.5-0.3,0.7c-0.2,0.2-0.4,0.3-0.7,0.3S9.1,16.1,9,15.9
           C8.8,15.8,8.7,15.5,8.7,15.3z" />
		</g>
	</g>
	<g>
		<g>
			<path d="M10.5,4c3.6,0,6.5,2.9,6.5,6.5S14.1,17,10.5,17S4,14.1,4,10.5S6.9,4,10.5,4 M10.5,3C6.4,3,3,6.4,3,10.5
           S6.4,18,10.5,18s7.5-3.4,7.5-7.5S14.6,3,10.5,3L10.5,3z" />
		</g>
	</g>
</svg>