<?xml version="1.0" encoding="utf-8"?>
<!-- Generator: Adobe Illustrator 21.1.0, SVG Export Plug-In . SVG Version: 6.00 Build 0)  -->
<svg version="1.1" id="mb" xmlns="http://www.w3.org/2000/svg" xmlns:xlink="http://www.w3.org/1999/xlink" x="0px" y="0px"
	 viewBox="0 0 21 21" style="enable-background:new 0 0 21 21;" xml:space="preserve">
<style type="text/css">
	.st0{clip-path:url(#SVGID_2_);fill:none;stroke:#DA0B29;stroke-width:2;stroke-miterlimit:20;}
	.st1{clip-path:url(#SVGID_4_);fill:none;stroke:#DA0B29;stroke-width:2;stroke-miterlimit:20;}
	.st2{clip-path:url(#SVGID_6_);fill:none;stroke:#DA0B29;stroke-width:2;stroke-miterlimit:20;}
	.st3{clip-path:url(#SVGID_8_);fill:none;stroke:#DA0B29;stroke-width:2;stroke-miterlimit:20;}
	.st4{clip-path:url(#SVGID_10_);fill:none;stroke:#DA0B29;stroke-width:2;stroke-miterlimit:20;}
	.st5{clip-path:url(#SVGID_12_);fill:none;stroke:#DA0B29;stroke-width:2;stroke-miterlimit:20;}
	.st6{clip-path:url(#SVGID_14_);fill:none;stroke:#DA0B29;stroke-width:2;stroke-miterlimit:20;}
	.st7{clip-path:url(#SVGID_16_);fill:none;stroke:#DA0B29;stroke-width:2;stroke-miterlimit:20;}
	.st8{clip-path:url(#SVGID_18_);fill:none;stroke:#DA0B29;stroke-width:2;stroke-miterlimit:20;}
	.st9{clip-path:url(#SVGID_20_);fill:none;stroke:#DA0B29;stroke-width:2;stroke-miterlimit:20;}
	.st10{clip-path:url(#SVGID_22_);fill:none;stroke:#DA0B29;stroke-width:2;stroke-miterlimit:20;}
	.st11{clip-path:url(#SVGID_24_);fill:none;stroke:#DA0B29;stroke-width:2;stroke-miterlimit:20;}
	.st12{clip-path:url(#SVGID_26_);fill:none;stroke:#DA0B29;stroke-width:2;stroke-miterlimit:20;}
	.st13{clip-path:url(#SVGID_28_);fill:none;stroke:#DA0B29;stroke-width:2;stroke-miterlimit:20;}
	.st14{clip-path:url(#SVGID_30_);fill:none;stroke:#DA0B29;stroke-width:2;stroke-miterlimit:20;}
	.st15{clip-path:url(#SVGID_32_);fill:none;stroke:#DA0B29;stroke-width:2;stroke-miterlimit:20;}
	.st16{clip-path:url(#SVGID_34_);fill:none;stroke:#DA0B29;stroke-width:2;stroke-miterlimit:20;}
	.st17{fill:#DA0B29;}
</style>
<g>
	<defs>
		<rect id="SVGID_1_" x="8" y="2" width="1" height="2"/>
	</defs>
	<clipPath id="SVGID_2_">
		<use xlink:href="#SVGID_1_"  style="overflow:visible;"/>
	</clipPath>
	<path class="st0" d="M8,2L8,2h1v2H8l0,0V2z"/>
</g>
<g>
	<defs>
		<rect id="SVGID_3_" x="10" y="2" width="1" height="2"/>
	</defs>
	<clipPath id="SVGID_4_">
		<use xlink:href="#SVGID_3_"  style="overflow:visible;"/>
	</clipPath>
	<path class="st1" d="M10,2L10,2h1v2h-1l0,0V2z"/>
</g>
<g>
	<defs>
		<rect id="SVGID_5_" x="12" y="2" width="1" height="2"/>
	</defs>
	<clipPath id="SVGID_6_">
		<use xlink:href="#SVGID_5_"  style="overflow:visible;"/>
	</clipPath>
	<path class="st2" d="M12,2L12,2h1v2h-1l0,0V2z"/>
</g>
<g>
	<defs>
		<rect id="SVGID_7_" x="17" y="8" width="2" height="1"/>
	</defs>
	<clipPath id="SVGID_8_">
		<use xlink:href="#SVGID_7_"  style="overflow:visible;"/>
	</clipPath>
	<path class="st3" d="M17,8L17,8h2v1h-2l0,0V8z"/>
</g>
<g>
	<defs>
		<rect id="SVGID_9_" x="17" y="10" width="2" height="1"/>
	</defs>
	<clipPath id="SVGID_10_">
		<use xlink:href="#SVGID_9_"  style="overflow:visible;"/>
	</clipPath>
	<path class="st4" d="M17,10L17,10h2v1h-2l0,0V10z"/>
</g>
<g>
	<defs>
		<rect id="SVGID_11_" x="17" y="12" width="2" height="1"/>
	</defs>
	<clipPath id="SVGID_12_">
		<use xlink:href="#SVGID_11_"  style="overflow:visible;"/>
	</clipPath>
	<path class="st5" d="M17,12L17,12h2v1h-2l0,0V12z"/>
</g>
<g>
	<defs>
		<rect id="SVGID_13_" x="12" y="17" width="1" height="2"/>
	</defs>
	<clipPath id="SVGID_14_">
		<use xlink:href="#SVGID_13_"  style="overflow:visible;"/>
	</clipPath>
	<path class="st6" d="M12,17L12,17h1v2h-1l0,0V17z"/>
</g>
<g>
	<defs>
		<rect id="SVGID_15_" x="10" y="17" width="1" height="2"/>
	</defs>
	<clipPath id="SVGID_16_">
		<use xlink:href="#SVGID_15_"  style="overflow:visible;"/>
	</clipPath>
	<path class="st7" d="M10,17L10,17h1v2h-1l0,0V17z"/>
</g>
<g>
	<defs>
		<rect id="SVGID_17_" x="8" y="17" width="1" height="2"/>
	</defs>
	<clipPath id="SVGID_18_">
		<use xlink:href="#SVGID_17_"  style="overflow:visible;"/>
	</clipPath>
	<path class="st8" d="M8,17L8,17h1v2H8l0,0V17z"/>
</g>
<g>
	<defs>
		<rect id="SVGID_19_" x="2" y="12" width="2" height="1"/>
	</defs>
	<clipPath id="SVGID_20_">
		<use xlink:href="#SVGID_19_"  style="overflow:visible;"/>
	</clipPath>
	<path class="st9" d="M2,12L2,12h2v1H2l0,0V12z"/>
</g>
<g>
	<defs>
		<rect id="SVGID_21_" x="2" y="10" width="2" height="1"/>
	</defs>
	<clipPath id="SVGID_22_">
		<use xlink:href="#SVGID_21_"  style="overflow:visible;"/>
	</clipPath>
	<path class="st10" d="M2,10L2,10h2v1H2l0,0V10z"/>
</g>
<g>
	<defs>
		<rect id="SVGID_23_" x="2" y="8" width="2" height="1"/>
	</defs>
	<clipPath id="SVGID_24_">
		<use xlink:href="#SVGID_23_"  style="overflow:visible;"/>
	</clipPath>
	<path class="st11" d="M2,8L2,8h2v1H2l0,0V8z"/>
</g>
<g>
	<defs>
		<rect id="SVGID_25_" x="5" y="5" width="4" height="1"/>
	</defs>
	<clipPath id="SVGID_26_">
		<use xlink:href="#SVGID_25_"  style="overflow:visible;"/>
	</clipPath>
	<path class="st12" d="M5,5L5,5h4v1H5l0,0V5z"/>
</g>
<g>
	<defs>
		<rect id="SVGID_27_" x="5" y="8" width="4" height="1"/>
	</defs>
	<clipPath id="SVGID_28_">
		<use xlink:href="#SVGID_27_"  style="overflow:visible;"/>
	</clipPath>
	<path class="st13" d="M5,8L5,8h4v1H5l0,0V8z"/>
</g>
<g>
	<defs>
		<rect id="SVGID_29_" x="5" y="11" width="4" height="1"/>
	</defs>
	<clipPath id="SVGID_30_">
		<use xlink:href="#SVGID_29_"  style="overflow:visible;"/>
	</clipPath>
	<path class="st14" d="M5,11L5,11h4v1H5l0,0V11z"/>
</g>
<g>
	<defs>
		<rect id="SVGID_31_" x="5" y="14" width="11" height="1"/>
	</defs>
	<clipPath id="SVGID_32_">
		<use xlink:href="#SVGID_31_"  style="overflow:visible;"/>
	</clipPath>
	<path class="st15" d="M5,14L5,14h11v1H5l0,0V14z"/>
</g>
<g>
	<defs>
		<rect id="SVGID_33_" x="11" y="11" width="5" height="1"/>
	</defs>
	<clipPath id="SVGID_34_">
		<use xlink:href="#SVGID_33_"  style="overflow:visible;"/>
	</clipPath>
	<path class="st16" d="M11,11L11,11h5v1h-5l0,0V11z"/>
</g>
<g>
	<path class="st17" d="M17,3c0.6,0,1,0.4,1,1v13c0,0.6-0.4,1-1,1H4c-0.6,0-1-0.4-1-1V4c0-0.6,0.4-1,1-1H17 M17,2H4C2.9,2,2,2.9,2,4
		v13c0,1.1,0.9,2,2,2h13c1.1,0,2-0.9,2-2V4C19,2.9,18.1,2,17,2L17,2z"/>
</g>
<g>
	<path class="st17" d="M14,6c0.6,0,1,0.4,1,1v1c0,0.6-0.4,1-1,1h-1c-0.6,0-1-0.4-1-1V7c0-0.6,0.4-1,1-1H14 M14,5h-1
		c-1.1,0-2,0.9-2,2v1c0,1.1,0.9,2,2,2h1c1.1,0,2-0.9,2-2V7C16,5.9,15.1,5,14,5L14,5z"/>
</g>
</svg>
