<svg xmlns="http://www.w3.org/2000/svg" width="17" height="17" viewBox="0 0 17 17"><defs><clipPath id="da7sa"><path fill="#fff" d="M2-.001h13a2 2 0 0 1 2 2v13a2 2 0 0 1-2 2H2a2 2 0 0 1-2-2V2a2 2 0 0 1 2-2z"/></clipPath><clipPath id="da7sb"><path fill="#fff" d="M6-.001h1v2H6z"/></clipPath><clipPath id="da7sc"><path fill="#fff" d="M8-.001h1v2H8z"/></clipPath><clipPath id="da7sd"><path fill="#fff" d="M10-.001h1v2h-1z"/></clipPath><clipPath id="da7se"><path fill="#fff" d="M15 6h2v1h-2z"/></clipPath><clipPath id="da7sf"><path fill="#fff" d="M15 8h2v1h-2z"/></clipPath><clipPath id="da7sg"><path fill="#fff" d="M15 10h2v1h-2z"/></clipPath><clipPath id="da7sh"><path fill="#fff" d="M10 15h1v2h-1z"/></clipPath><clipPath id="da7si"><path fill="#fff" d="M8 15h1v2H8z"/></clipPath><clipPath id="da7sj"><path fill="#fff" d="M6 15h1v2H6z"/></clipPath><clipPath id="da7sk"><path fill="#fff" d="M0 10h2v1H0z"/></clipPath><clipPath id="da7sl"><path fill="#fff" d="M0 8h2v1H0z"/></clipPath><clipPath id="da7sm"><path fill="#fff" d="M0 6h2v1H0z"/></clipPath><clipPath id="da7sn"><path fill="#fff" d="M11 3h1a2 2 0 0 1 2 2v1a2 2 0 0 1-2 2h-1a2 2 0 0 1-2-2V5a2 2 0 0 1 2-2z"/></clipPath><clipPath id="da7so"><path fill="#fff" d="M3 3h4v1H3z"/></clipPath><clipPath id="da7sp"><path fill="#fff" d="M3 6h4v1H3z"/></clipPath><clipPath id="da7sq"><path fill="#fff" d="M3 9h4v1H3z"/></clipPath><clipPath id="da7sr"><path fill="#fff" d="M3 12h11v1H3z"/></clipPath><clipPath id="da7ss"><path fill="#fff" d="M9 9h5v1H9z"/></clipPath></defs><g><g><g><path fill="none" stroke="#da0b29" stroke-miterlimit="20" stroke-width="2" d="M2-.001h13a2 2 0 0 1 2 2v13a2 2 0 0 1-2 2H2a2 2 0 0 1-2-2V2a2 2 0 0 1 2-2z" clip-path="url(&quot;#da7sa&quot;)"/></g><g><path fill="none" stroke="#da0b29" stroke-miterlimit="20" stroke-width="2" d="M6-.001v0h1v2H6v0z" clip-path="url(&quot;#da7sb&quot;)"/></g><g><path fill="none" stroke="#da0b29" stroke-miterlimit="20" stroke-width="2" d="M8-.001v0h1v2H8v0z" clip-path="url(&quot;#da7sc&quot;)"/></g><g><path fill="none" stroke="#da0b29" stroke-miterlimit="20" stroke-width="2" d="M10-.001v0h1v2h-1v0z" clip-path="url(&quot;#da7sd&quot;)"/></g><g><path fill="none" stroke="#da0b29" stroke-miterlimit="20" stroke-width="2" d="M15 6v0h2v1h-2v0z" clip-path="url(&quot;#da7se&quot;)"/></g><g><path fill="none" stroke="#da0b29" stroke-miterlimit="20" stroke-width="2" d="M15 8v0h2v1h-2v0z" clip-path="url(&quot;#da7sf&quot;)"/></g><g><path fill="none" stroke="#da0b29" stroke-miterlimit="20" stroke-width="2" d="M15 10v0h2v1h-2v0z" clip-path="url(&quot;#da7sg&quot;)"/></g><g><path fill="none" stroke="#da0b29" stroke-miterlimit="20" stroke-width="2" d="M10 15v0h1v2h-1v0z" clip-path="url(&quot;#da7sh&quot;)"/></g><g><path fill="none" stroke="#da0b29" stroke-miterlimit="20" stroke-width="2" d="M8 15v0h1v2H8v0z" clip-path="url(&quot;#da7si&quot;)"/></g><g><path fill="none" stroke="#da0b29" stroke-miterlimit="20" stroke-width="2" d="M6 15v0h1v2H6v0z" clip-path="url(&quot;#da7sj&quot;)"/></g><g><path fill="none" stroke="#da0b29" stroke-miterlimit="20" stroke-width="2" d="M0 10v0h2v1H0v0z" clip-path="url(&quot;#da7sk&quot;)"/></g><g><path fill="none" stroke="#da0b29" stroke-miterlimit="20" stroke-width="2" d="M0 8v0h2v1H0v0z" clip-path="url(&quot;#da7sl&quot;)"/></g><g><path fill="none" stroke="#da0b29" stroke-miterlimit="20" stroke-width="2" d="M0 6v0h2v1H0v0z" clip-path="url(&quot;#da7sm&quot;)"/></g><g><path fill="none" stroke="#da0b29" stroke-miterlimit="20" stroke-width="2" d="M11 3h1a2 2 0 0 1 2 2v1a2 2 0 0 1-2 2h-1a2 2 0 0 1-2-2V5a2 2 0 0 1 2-2z" clip-path="url(&quot;#da7sn&quot;)"/></g><g><path fill="none" stroke="#da0b29" stroke-miterlimit="20" stroke-width="2" d="M3 3v0h4v1H3v0z" clip-path="url(&quot;#da7so&quot;)"/></g><g><path fill="none" stroke="#da0b29" stroke-miterlimit="20" stroke-width="2" d="M3 6v0h4v1H3v0z" clip-path="url(&quot;#da7sp&quot;)"/></g><g><path fill="none" stroke="#da0b29" stroke-miterlimit="20" stroke-width="2" d="M3 9v0h4v1H3v0z" clip-path="url(&quot;#da7sq&quot;)"/></g><g><path fill="none" stroke="#da0b29" stroke-miterlimit="20" stroke-width="2" d="M3 12v0h11v1H3v0z" clip-path="url(&quot;#da7sr&quot;)"/></g><g><path fill="none" stroke="#da0b29" stroke-miterlimit="20" stroke-width="2" d="M9 9v0h5v1H9v0z" clip-path="url(&quot;#da7ss&quot;)"/></g></g></g></svg>