<?xml version="1.0" encoding="utf-8"?>
<!-- Generator: Adobe Illustrator 21.1.0, SVG Export Plug-In . SVG Version: 6.00 Build 0)  -->
<svg version="1.1" id="menu" xmlns="http://www.w3.org/2000/svg" xmlns:xlink="http://www.w3.org/1999/xlink" x="0px" y="0px"
	 viewBox="0 0 20 20" style="enable-background:new 0 0 20 20;" xml:space="preserve">
<style type="text/css">
	.st0{fill-rule:evenodd;clip-rule:evenodd;}
</style>
<path class="st0" d="M17,5H3C2.4,5,2,4.6,2,4v0c0-0.5,0.4-1,1-1h14c0.5,0,1,0.4,1,1v0C18,4.6,17.6,5,17,5z"/>
<path class="st0" d="M13,11H3c-0.5,0-1-0.4-1-1v0c0-0.5,0.4-1,1-1h10c0.5,0,1,0.4,1,1v0C14,10.6,13.6,11,13,11z"/>
<path class="st0" d="M9,17H3c-0.5,0-1-0.4-1-1v0c0-0.5,0.4-1,1-1h6c0.5,0,1,0.4,1,1v0C10,16.6,9.6,17,9,17z"/>
</svg>
