<svg xmlns="http://www.w3.org/2000/svg" width="13" height="15" viewBox="0 0 13 15"><defs><clipPath id="qlnna"><path fill="#fff" d="M2 7.999h9a2 2 0 0 1 2 2v3a2 2 0 0 1-2 2H2a2 2 0 0 1-2-2v-3a2 2 0 0 1 2-2z"/></clipPath><clipPath id="qlnnb"><path fill="#fff" d="M7 7.999H6v-2h1z"/></clipPath><clipPath id="qlnnc"><path fill="#fff" d="M7 5H6V4h1z"/></clipPath><clipPath id="qlnnd"><path fill="#fff" d="M7 3H6V1h1z"/></clipPath><clipPath id="qlnne"><path fill="#fff" d="M4 1V0h5v1z"/></clipPath></defs><g><g><g><path fill="none" stroke="#da0b29" stroke-miterlimit="20" stroke-width="2" d="M2 7.999h9a2 2 0 0 1 2 2v3a2 2 0 0 1-2 2H2a2 2 0 0 1-2-2v-3a2 2 0 0 1 2-2z" clip-path="url(&quot;#qlnna&quot;)"/></g><g><path fill="none" stroke="#da0b29" stroke-miterlimit="20" stroke-width="2" d="M7 7.999v0H6v0-2 0h1v0z" clip-path="url(&quot;#qlnnb&quot;)"/></g><g><path fill="none" stroke="#da0b29" stroke-miterlimit="20" stroke-width="2" d="M7 5v0H6v0-1 0h1v0z" clip-path="url(&quot;#qlnnc&quot;)"/></g><g><path fill="none" stroke="#da0b29" stroke-miterlimit="20" stroke-width="2" d="M7 3v0H6v0-2 0h1v0z" clip-path="url(&quot;#qlnnd&quot;)"/></g><g><path fill="none" stroke="#da0b29" stroke-miterlimit="20" stroke-width="2" d="M4 1v0-1 0h5v1z" clip-path="url(&quot;#qlnne&quot;)"/></g><g><g><path fill="#da0b29" d="M2 10h1v1H2z"/></g><g><path fill="#da0b29" d="M2 12h1v1H2z"/></g><g><path fill="#da0b29" d="M4 10h1v1H4z"/></g><g><path fill="#da0b29" d="M4 12h1v1H4z"/></g><g><path fill="#da0b29" d="M6 10h1v1H6z"/></g><g><path fill="#da0b29" d="M6 12h1v1H6z"/></g><g><path fill="#da0b29" d="M8 10h1v1H8z"/></g><g><path fill="#da0b29" d="M8 12h1v1H8z"/></g><g><path fill="#da0b29" d="M10 10h1v1h-1z"/></g><g><path fill="#da0b29" d="M10 12h1v1h-1z"/></g></g></g></g></svg>