<?xml version="1.0" encoding="utf-8"?>
<!-- Generator: Adobe Illustrator 21.1.0, SVG Export Plug-In . SVG Version: 6.00 Build 0)  -->
<svg version="1.1" id="power" xmlns="http://www.w3.org/2000/svg" xmlns:xlink="http://www.w3.org/1999/xlink" x="0px" y="0px"
	 viewBox="0 0 21 21" style="enable-background:new 0 0 21 21;" xml:space="preserve">
<path id="bolt" d="M11.5,6L8,11.3h2.1L9.5,15L13,9.8h-2.1L11.5,6L11.5,6z"/>
<g id="square">
	<path d="M15,4c1.1,0,2,0.9,2,2v9c0,1.1-0.9,2-2,2H6c-1.1,0-2-0.9-2-2V6c0-1.1,0.9-2,2-2H15 M15,3H6C4.3,3,3,4.3,3,6v9
		c0,1.7,1.3,3,3,3h9c1.7,0,3-1.3,3-3V6C18,4.3,16.7,3,15,3L15,3z"/>
</g>
</svg>
