<?xml version="1.0" encoding="utf-8"?>
<!-- Generator: Adobe Illustrator 21.1.0, SVG Export Plug-In . SVG Version: 6.00 Build 0)  -->
<svg version="1.1" id="_x31__1_" xmlns="http://www.w3.org/2000/svg" xmlns:xlink="http://www.w3.org/1999/xlink" x="0px" y="0px"
	 viewBox="0 0 21 21" width="21" height="21"  xml:space="preserve">
<style type="text/css">
	.st0{fill-rule:evenodd;clip-rule:evenodd;fill:#0B000C;}
</style>
<g id="_x31_">
	<g>
		<path class="st0" d="M18.2,7.1H3c-1.1,0-2,0.9-2,2v3c0,1.1,0.9,2,2,2h1v0.5c0,0.3,0.2,0.5,0.5,0.5c0.3,0,0.5-0.2,0.5-0.5v-0.5h1
			v0.5c0,0.3,0.2,0.5,0.5,0.5s0.5-0.2,0.5-0.5v-0.5h1v0.5c0,0.3,0.2,0.5,0.5,0.5c0.3,0,0.5-0.2,0.5-0.5v-0.5h1v0.5
			c0,0.3,0.2,0.5,0.5,0.5s0.5-0.2,0.5-0.5v-0.5h1v0.5c0,0.3,0.2,0.5,0.5,0.5c0.3,0,0.5-0.2,0.5-0.5v-0.5h1v0.5
			c0,0.3,0.2,0.5,0.5,0.5s0.5-0.2,0.5-0.5v-0.5h1v0.5c0,0.3,0.2,0.5,0.5,0.5c0.3,0,0.5-0.2,0.5-0.5v-0.5h1c1.1,0,2-0.9,2-2v-3
			C20.2,8,19.3,7.1,18.2,7.1z M7.1,12.1c0,0.6-0.5,1-1,1h-1c-0.6,0-1-0.5-1-1v-3c0-0.6,0.5-1,1-1h1c0.6,0,1,0.5,1,1V12.1z
			 M12.1,12.1c0,0.6-0.5,1-1,1h-1c-0.6,0-1-0.5-1-1v-3c0-0.6,0.5-1,1-1h1c0.6,0,1,0.5,1,1V12.1z M17.2,12.1c0,0.6-0.5,1-1,1h-1
			c-0.6,0-1-0.5-1-1v-3c0-0.6,0.5-1,1-1h1c0.6,0,1,0.5,1,1V12.1z"/>
	</g>
</g>
</svg>
