<?xml version="1.0" encoding="utf-8"?>
<svg version="1.1" id="stars" xmlns="http://www.w3.org/2000/svg" xmlns:xlink="http://www.w3.org/1999/xlink" x="0px" y="0px"
	 viewBox="0 0 21 21" style="enable-background:new 0 0 21 21;" xml:space="preserve">
<g>
	<g>
		<path d="M7.8,6.7L9,5.4L7.3,5.1L6.5,3.5L5.7,5.1L4,5.4l1.2,1.3L5,8.5l1.5-0.8L8,8.5L7.8,6.7z M17,6.4l-1.7-0.3
			l-0.8-1.6l-0.8,1.6L12,6.4l1.2,1.3L13,9.5l1.5-0.8L16,9.5l-0.2-1.8L17,6.4z M12.3,11L11,8.5L9.7,11L7,11.6l1.9,2.1l-0.3,2.8
			l2.5-1.2l2.5,1.2l-0.3-2.8l1.9-2.1L12.3,11z"/>
	</g>
</g>
</svg>
