<svg xmlns="http://www.w3.org/2000/svg" width="16" height="14" viewBox="0 0 16 14">
  <defs>
    <style>
      .cls-1 {
        fill: #212020;
        fill-rule: evenodd;
      }
    </style>
  </defs>
  <path id="Фигура_936_копия" data-name="Фигура 936 копия" class="cls-1" d="M902.443,858.412a10.99,10.99,0,0,1,5.466-3.206A10.99,10.99,0,0,1,902.443,852l0.6,2.094c-11.515.862-3.744,8.948,0.186,9.1-2.177-.867-6.37-6.366-0.186-6.882l-0.6,2.1h0Zm5.113,1.174a10.976,10.976,0,0,1-5.466,3.206A10.99,10.99,0,0,1,907.556,866l-0.6-2.094c11.516-.863,3.744-8.949-0.186-9.105,2.178,0.866,6.371,6.365.186,6.881l0.6-2.094h0Z" transform="translate(-897 -852)"/>
</svg>
