<svg xmlns="http://www.w3.org/2000/svg" width="10" height="10"><path fill="#f9f9f9" d="M1.129.574c0 .216-.35.564-.565.564-.217 0-.566-.348-.566-.564 0-.227.35-.566.566-.566.215 0 .565.34.565.566zM.574 10c-.227 0-.566-.35-.566-.565 0-.216.34-.566.566-.566.226 0 .565.35.565.566 0 .216-.34.565-.566.565zm1.634-8.358c0 .226-.35.565-.565.565-.216 0-.566-.34-.566-.565 0-.216.35-.566.566-.566.216 0 .565.35.565.566zM1.653 8.92c-.226 0-.565-.35-.565-.565 0-.216.339-.566.565-.566.227 0 .566.35.566.566 0 .216-.34.565-.566.565zm1.08-1.089c-.226 0-.566-.35-.566-.566 0-.216.34-.565.566-.565.226 0 .565.349.565.565 0 .216-.34.566-.565.566zm.555-5.1c0 .226-.35.566-.555.566-.206 0-.556-.34-.556-.566 0-.226.35-.565.556-.565.205 0 .555.339.555.565zm1.09 1.07c0 .226-.35.575-.566.575-.216 0-.565-.35-.565-.576 0-.216.35-.565.565-.565.216 0 .565.35.565.565zm-.566 2.95c-.226 0-.565-.35-.565-.565 0-.216.339-.566.565-.566.226 0 .565.35.565.566 0 .215-.339.565-.565.565zm1.193-1.028c-.299 0-.74-.452-.74-.73 0-.278.441-.73.74-.73.298 0 .74.452.74.73 0 .278-.442.73-.74.73zm1.192-1.347c-.226 0-.576-.35-.576-.565 0-.216.35-.566.576-.566.216 0 .565.35.565.566 0 .216-.35.565-.565.565zm.556 1.81c0 .226-.35.565-.566.565-.216 0-.566-.339-.566-.565 0-.226.35-.566.566-.566.216 0 .566.34.566.566zm.514-2.91c-.227 0-.566-.34-.566-.555 0-.216.34-.555.566-.555.226 0 .565.339.565.555 0 .215-.34.555-.565.555zm.565 3.99c0 .225-.34.565-.555.565-.216 0-.555-.34-.555-.566 0-.226.34-.565.555-.565.216 0 .555.34.555.565zm.524-5.059c-.226 0-.565-.35-.565-.565 0-.216.339-.566.565-.566.216 0 .566.35.566.566 0 .215-.35.565-.566.565zm.566 6.137c0 .227-.35.566-.566.566-.216 0-.565-.34-.565-.566 0-.215.35-.565.565-.565.216 0 .566.35.566.565zm.504-7.217c-.216 0-.566-.35-.566-.565 0-.216.35-.566.566-.566.226 0 .565.35.565.566 0 .216-.34.565-.565.565zM10 9.425c0 .227-.35.566-.565.566-.216 0-.565-.34-.565-.566 0-.226.35-.565.565-.565.216 0 .565.34.565.565z"/><path fill="#bfbfbf" d="M1.129.574c0 .216-.35.564-.565.564-.217 0-.566-.348-.566-.564 0-.227.35-.566.566-.566.215 0 .565.34.565.566zM.574 10c-.227 0-.566-.35-.566-.565 0-.216.34-.566.566-.566.226 0 .565.35.565.566 0 .216-.34.565-.566.565zm1.634-8.358c0 .226-.35.565-.565.565-.216 0-.566-.34-.566-.565 0-.216.35-.566.566-.566.216 0 .565.35.565.566zM1.653 8.92c-.226 0-.565-.35-.565-.565 0-.216.339-.566.565-.566.227 0 .566.35.566.566 0 .216-.34.565-.566.565zm1.08-1.089c-.226 0-.566-.35-.566-.566 0-.216.34-.565.566-.565.226 0 .565.349.565.565 0 .216-.34.566-.565.566zm.555-5.1c0 .226-.35.566-.555.566-.206 0-.556-.34-.556-.566 0-.226.35-.565.556-.565.205 0 .555.339.555.565zm1.09 1.07c0 .226-.35.575-.566.575-.216 0-.565-.35-.565-.576 0-.216.35-.565.565-.565.216 0 .565.35.565.565zm-.566 2.95c-.226 0-.565-.35-.565-.565 0-.216.339-.566.565-.566.226 0 .565.35.565.566 0 .215-.339.565-.565.565zm1.193-1.028c-.299 0-.74-.452-.74-.73 0-.278.441-.73.74-.73.298 0 .74.452.74.73 0 .278-.442.73-.74.73zm1.192-1.347c-.226 0-.576-.35-.576-.565 0-.216.35-.566.576-.566.216 0 .565.35.565.566 0 .216-.35.565-.565.565zm.556 1.81c0 .226-.35.565-.566.565-.216 0-.566-.339-.566-.565 0-.226.35-.566.566-.566.216 0 .566.34.566.566zm.514-2.91c-.227 0-.566-.34-.566-.555 0-.216.34-.555.566-.555.226 0 .565.339.565.555 0 .215-.34.555-.565.555zm.565 3.99c0 .225-.34.565-.555.565-.216 0-.555-.34-.555-.566 0-.226.34-.565.555-.565.216 0 .555.34.555.565zm.524-5.059c-.226 0-.565-.35-.565-.565 0-.216.339-.566.565-.566.216 0 .566.35.566.566 0 .215-.35.565-.566.565zm.566 6.137c0 .227-.35.566-.566.566-.216 0-.565-.34-.565-.566 0-.215.35-.565.565-.565.216 0 .566.35.566.565zm.504-7.217c-.216 0-.566-.35-.566-.565 0-.216.35-.566.566-.566.226 0 .565.35.565.566 0 .216-.34.565-.565.565zM10 9.425c0 .227-.35.566-.565.566-.216 0-.565-.34-.565-.566 0-.226.35-.565.565-.565.216 0 .565.34.565.565z"/></svg>